<?xml version="1.0" encoding="UTF-8"?>
<svg width="48px" height="49px" viewBox="0 0 48 49" version="1.1" xmlns="http://www.w3.org/2000/svg" xmlns:xlink="http://www.w3.org/1999/xlink">
    <!-- Generator: Sketch 42 (36781) - http://www.bohemiancoding.com/sketch -->
    <title>Group 36</title>
    <desc>Created with Sketch.</desc>
    <defs></defs>
    <g id="Page-1" stroke="none" stroke-width="1" fill="none" fill-rule="evenodd">
        <g id="Group-36" transform="translate(-0.874031, 0.000000)">
            <g id="Group-17" transform="translate(0.083541, 0.000000)">
                <g id="Group-8-Copy" transform="translate(0.247457, 0.500000)">
                    <polygon id="Path-2-Copy" fill="#FFFFFF" points="7.3995667 4.99372234 7.18434336 36.2371011 13.1235091 44.0657182 13.0727541 12.4931122"></polygon>
                    <polygon id="Path-2-Copy" fill="#FFFFFF" transform="translate(15.135704, 22.331490) scale(-1, 1) translate(-15.135704, -22.331490) " points="13.2693448 0.597261209 13.1235091 35.356209 17.1478999 44.0657182 17.1135082 12.8625704"></polygon>
                    <polygon id="Path-2-Copy" fill="#FFFFFF" transform="translate(25.056308, 24.529720) scale(-1, 1) translate(-25.056308, -24.529720) " points="13.98835 4.99372234 13.1235091 36.2371011 36.9891065 44.0657182 36.8519858 14.2101811"></polygon>
                    <polygon id="Path-2-Copy" fill="#FFFFFF" transform="translate(19.688654, 22.488092) scale(-1, 1) translate(-19.688654, -22.488092) " points="13.484718 0.910465862 13.0045935 35.4189639 26.2537999 44.0657182 26.3727154 13.479696"></polygon>
                    <polygon id="Path-2" points="1.09177979 6.79837057 0.660487208 36.5986874 13.2296648 44.3530613 13.0217996 14.1131151"></polygon>
                    <polygon id="Path-2-Copy-2" points="12.5971765 13.7907572 12.6199638 44.4920087 39.8914389 44.4703329 39.9681378 13.7157256"></polygon>
                    <polyline id="XMLID_3301_" stroke="#5596E6" stroke-width="1.9998" stroke-linecap="round" stroke-linejoin="round" points="39.788062 40.0606997 39.788062 13.9097563 13.0923836 13.3327002 2.52634589 6.11571911 2.52634589 32.2666625"></polyline>
                    <polyline id="XMLID_3300_" stroke="#5596E6" stroke-width="1.9998" stroke-linejoin="round" points="36.4383192 12.9170562 36.4383192 5.70007511 13.0923836 13.4176059 8.72445909 2.46477572 8.72445909 9.68175685"></polyline>
                    <polyline id="XMLID_3300_" stroke="#5596E6" stroke-width="1.9998" stroke-linejoin="round" points="16.5768856 9.41487613 16.8195645 0.806590634 13.0923836 13.4176059"></polyline>
                    <polyline id="XMLID_3300_" stroke="#5596E6" stroke-width="1.9998" stroke-linejoin="round" points="26.1841085 9.38165005 26.4267874 0.773364555 13.0923836 13.4176059"></polyline>
                    <path d="M13.0923836,43.9836436 L13.0923836,23.2666625" id="XMLID_3299_" stroke="#5596E6" stroke-width="1.9998" stroke-linecap="round"></path>
                    <polyline id="XMLID_3298_" stroke="#5596E6" stroke-width="1.9998" stroke-linecap="round" stroke-linejoin="round" points="39.3551021 43.6127498 13.0923836 43.9836436 5.51691192 38.9742097"></polyline>
                </g>
                <path d="M34.3678176,29.7682549 C34.3678176,28.4380776 33.2723775,27.3426375 31.9422002,27.3426375 L31.7465859,27.3426375 C31.0814973,24.8387745 28.8123714,23 26.112894,23 C22.9048194,23 20.2835877,25.6212317 20.2835877,28.8293062 C20.2835877,29.0640434 20.2835877,29.2596577 20.3227106,29.4943949 L20.2835877,29.4943949 C18.8360419,29.4943949 17.7014789,30.6680807 17.7014789,32.0765037 C17.7014789,33.5240495 18.8751648,34.6586125 20.2835877,34.6586125 L34.3678176,34.6586125 C35.6979949,34.6586125 36.793435,33.5631724 36.793435,32.2329951 C36.793435,30.863695 35.6979949,29.7682549 34.3678176,29.7682549 Z" id="Shape" stroke="#5596E6" stroke-width="1.9998" stroke-linecap="round" stroke-linejoin="round"></path>
            </g>
            <g id="Group-33-Copy-2" transform="translate(24.000000, 24.280300)">
                <g id="Group-26">
                    <ellipse id="Oval-5" fill="#325C80" cx="12.1162811" cy="12.1162811" rx="12.1162811" ry="12.1162811"></ellipse>
                    <g id="Page-1-Copy" transform="translate(3.461795, 3.461795)" fill="#FFFFFF">
                        <path d="M14.9265122,6.73136641 L13.1336492,8.5249286 C12.1176469,9.54093089 10.5037906,9.57589312 9.43184874,8.65848431 L12.2456087,5.84402511 L11.5037103,5.10282592 L8.68995031,7.91658587 C7.7725415,6.84464402 7.80890221,5.23078767 8.82280677,4.21548463 L10.6177675,2.42192243 C11.1505918,1.88909811 11.8498363,1.62268595 12.5490808,1.62268595 C13.2497238,1.62268595 13.9489683,1.88909811 14.4810934,2.42192243 L14.9265122,2.86734119 C15.9914616,3.9322906 15.9914616,5.66641701 14.9265122,6.73136641 M8.52702634,13.1308523 L6.73346414,14.9244144 C5.66851474,15.9893639 3.93368908,15.9893639 2.86873968,14.9244144 L2.42332092,14.4796949 C1.35977001,13.4147455 1.35977001,11.6799199 2.42332092,10.6149705 L4.2182816,8.82140828 C4.75040668,8.2892832 5.4496512,8.02287104 6.14889572,8.02287104 C6.7831105,8.02287104 7.40963359,8.25292248 7.91938285,8.68855182 L5.10422441,11.5023118 L5.84612285,12.2442102 L8.66058204,9.42975101 C9.57869009,10.5023921 9.54163013,12.1169477 8.52702634,13.1308523 M15.6684106,2.12544276 L15.2229919,1.680024 C14.5111609,0.96889232 13.5622861,0.576616145 12.5504793,0.576616145 C11.5365747,0.576616145 10.5876999,0.96889232 9.87586902,1.680024 L8.08160758,3.47428544 C7.36977666,4.18541711 6.97819972,5.13569041 6.97819972,6.14819648 C6.97819972,6.48173612 7.03553778,6.80338859 7.11804863,7.11665014 C6.80478708,7.03413929 6.48383385,6.97680124 6.15029421,6.97680124 C5.1370889,6.97680124 4.18821409,7.36837817 3.47638317,8.08020909 L1.68212173,9.87307204 C0.208114283,11.3477787 0.208114283,13.7468867 1.68212173,15.2215934 L2.12684125,15.6656136 C2.83867217,16.3774446 3.78894547,16.7690215 4.80145153,16.7690215 C5.81325835,16.7690215 6.76353166,16.3774446 7.47536258,15.6656136 L9.26822553,13.8727507 C9.98005645,13.1609198 10.3716334,12.2113457 10.3716334,11.1988396 C10.3716334,10.8653 10.3149946,10.5436475 10.2324837,10.2310852 C10.5457453,10.3128968 10.8673977,10.3702349 11.2009374,10.3702349 C12.2127442,10.3702349 13.1637167,9.97865796 13.8748484,9.26682704 L15.6684106,7.47326484 C16.3795423,6.76143392 16.7718185,5.81185987 16.7718185,4.79865456 C16.7718185,3.78684774 16.3795423,2.83727368 15.6684106,2.12544276" id="Fill-1"></path>
                    </g>
                </g>
            </g>
        </g>
    </g>
</svg>
