<?xml version="1.0" encoding="utf-8"?>
<!-- Generator: Adobe Illustrator 19.2.1, SVG Export Plug-In . SVG Version: 6.00 Build 0)  -->
<svg version="1.1" id="Layer_1" xmlns="http://www.w3.org/2000/svg" xmlns:xlink="http://www.w3.org/1999/xlink" x="0px" y="0px"
	 viewBox="0 0 1200 1200" style="enable-background:new 0 0 1200 1200;" xml:space="preserve">
<style type="text/css">
	.st0{fill:#FDA0EC;}
	.st1{fill:#FC42A0;}
</style>
<g>
	<path class="st0" d="M612.3,999.7c0-2.2,0-3.9,0-5.5c0-64.9,0-129.9,0-194.8c0-57.6,0-115.3,0-172.9c0-8.4,0.3-8.9,8-11.8
		c117.8-44.3,235.5-88.7,353.3-133c35.1-13.2,70.2-26.4,105.4-39.7c1.8-0.7,3.6-1.2,6.2-2.1c0,2.3,0,3.9,0,5.5
		c0.1,122.5,0.1,245.1,0.2,367.6c0,8.4-0.5,9-8.5,12c-112.6,42.4-225.1,84.8-337.7,127.2c-40.4,15.2-80.9,30.4-121.4,45.6
		C616.2,998.5,614.5,999,612.3,999.7z"/>
	<path class="st0" d="M133.6,420.9c35.5-13.4,70-26.4,105.2-39.6c0.2,2.7,0.6,4.8,0.6,7c0.1,8.5,0.2,17.1,0,25.6
		c-0.4,11.4,4.2,20.2,12.6,27.6c11.9,10.4,26.3,15.2,41.1,19.1c46.9,12.3,93.4,10.7,139.4-4.9c10.2-3.5,19.4-8.6,27.2-16.2
		c7-6.8,10.6-15.1,10.5-24.9c-0.1-18.4-0.3-36.9,0.1-55.3c0.3-13.7-5.1-24.4-16.4-31.6c-8.1-5.2-17.2-8.9-25.9-13.2
		c-1.6-0.8-3.3-1.3-5.7-2.3c21.1-7.9,41.4-15.6,62.4-23.5c0.3,2.2,0.7,3.9,0.7,5.6c0.1,9.3,0.3,18.6,0,27.9
		c-0.3,10.9,4.1,19.4,12.1,26.4c11.8,10.3,26,15.6,41,19.4c46.3,11.8,92.2,10.8,137.7-4.1c10.4-3.4,19.9-8.4,28-15.7
		c8-7.2,12.2-16,11.7-27c-0.4-9.9-0.1-19.8-0.1-30.2c21,8,41.6,15.9,63,24.1c-5.3,2.7-10.1,5-14.8,7.5c-5.4,2.9-10.9,5.6-16,9
		c-9.1,6-14.2,14.7-14.3,25.6c-0.2,20.8-0.1,41.7,0,62.5c0,8.5,3.7,15.6,9.6,21.6c10.7,10.8,24.2,16.2,38.5,20.3
		c47.1,13.5,94.1,13.3,140.6-2.4c10.6-3.6,20.5-9.8,29.9-16c8.3-5.5,12-14.3,11.9-24.4c0-10.6,0-21.2,0-32.6
		c34.5,13.2,68.5,26.2,103.5,39.6c-10.5,4-19.9,7.7-29.4,11.3C926.2,479.1,814.1,521.4,702,563.6c-31.1,11.7-62.2,23.3-93.2,35
		c-4.6,1.7-8.7,1.1-13-0.6c-58.3-22.4-116.7-44.7-175.1-67c-93.1-35.6-186.3-71.2-279.4-106.8C139.1,423.4,136.9,422.4,133.6,420.9z
		 M718.7,481.4C718.7,481.4,718.8,481.4,718.7,481.4c0.1-9.3-0.2-18.6,0.1-27.9c0.4-11.5-3.9-20.7-12.4-28.1
		c-8.9-7.7-19.1-12.9-30.2-16.3c-42.3-13.3-85.1-14.7-128.3-5.1c-16.4,3.6-32.1,8.7-45.6,19.1c-9.3,7.1-15.1,16.2-15.1,28.3
		c-0.1,20.2-0.1,40.5,0.1,60.7c0.1,8.7,3,16.5,9.8,21.8c6.8,5.3,13.9,10.5,21.6,14.3c17.1,8.6,35.7,12,54.5,14
		c30.8,3.4,61.4,2.2,91.5-5.9c15.1-4.1,29.8-9.2,41.9-19.8c8.3-7.4,12.7-16.4,12.3-27.7C718.5,499.7,718.7,490.5,718.7,481.4z"/>
	<path class="st0" d="M599.2,293.8c-21.9-0.2-45.2-2.1-67.2-11c-7.6-3-14.8-7.2-21.6-11.8c-8.2-5.5-8.1-11.9-0.8-18.4
		c9.2-8.2,20.5-12.2,32.1-15.4c28.4-7.8,57.3-8.9,86.5-5.9c18.6,1.9,36.7,5.8,53.3,14.9c3.4,1.9,6.7,4,9.7,6.4
		c7.3,5.6,7.8,12.3,0.5,17.8c-6.6,5-14,9.4-21.7,12.4C647.8,291.2,624.4,293.7,599.2,293.8z"/>
	<path class="st0" d="M849.7,388.7c-25-0.1-48.5-2.1-70.7-11.3c-7.1-2.9-14-6.9-20.3-11.4c-8.5-6-8.1-12.4,0.2-18.8
		c11.7-8.9,25-14,39.2-16.9c39.7-8.3,79.2-8.3,117.9,4.9c7.8,2.7,15.3,6.9,22.3,11.4c9.2,5.9,9.2,12.9,0.8,20
		c-8.6,7.3-19,11.3-29.7,14.4C889.5,386.7,869.1,388.9,849.7,388.7z"/>
	<path class="st0" d="M345.8,386.4c-21.4-0.8-46.5-3.2-69.6-15.3c-4.4-2.3-8.5-5-12.5-8c-7.5-5.6-7.4-11.9,0.1-17.6
		c11.2-8.4,23.7-14,37.3-17c40.2-8.9,80.3-9.2,119.6,4.1c8.6,2.9,16.7,8,24.5,12.9c7.9,5.1,7.8,11.6,0.5,17.6
		c-12.7,10.5-28,15.3-43.7,18.8C384.9,385.7,367.4,386.7,345.8,386.4z"/>
	<path class="st0" d="M600.8,313.1c33.4-0.9,65.9-5,95.3-21.6c0,11.8,0.6,23.3-0.4,34.7c-0.3,3.5-4.3,7.5-7.6,9.8
		c-17,11.4-36.2,16.7-56.4,18.9c-10.2,1.1-20.5,1.6-31,2.4C600.8,342.1,600.8,328,600.8,313.1z"/>
	<path class="st0" d="M849.2,451.6c0-14.6,0-28.8,0-42.5c16.4-2,32.8-3.4,49-6.1c16.3-2.7,31.7-8.5,46.3-16.6
		c0,12,0.4,23.6-0.3,35.1c-0.1,2.7-3.2,5.6-5.5,7.8c-7.6,6.9-17,10.5-26.6,13.6C891.9,449.7,870.9,451.6,849.2,451.6z"/>
	<path class="st0" d="M354.8,405.8c33.5-1.1,65.8-5.1,96-22c0,4.6,0,8.1,0,11.6c0,6.3,0,12.6,0.1,18.9c0.1,6.2-2.4,10.5-7.8,14
		c-25.9,16.7-54.8,20.5-84.6,21.2c-2.2,0.1-3.7-0.1-3.7-3C354.9,433.1,354.8,419.8,354.8,405.8z"/>
	<path class="st1" d="M718.7,481.4c0,9.1-0.3,18.3,0.1,27.4c0.4,11.4-4,20.4-12.3,27.7c-12.1,10.6-26.7,15.7-41.9,19.8
		c-30.1,8.1-60.6,9.3-91.5,5.9c-18.9-2.1-37.5-5.4-54.5-14c-7.7-3.9-14.8-9-21.6-14.3c-6.8-5.4-9.8-13.2-9.8-21.8
		c-0.1-20.2-0.1-40.5-0.1-60.7c0-12,5.8-21.1,15.1-28.3c13.5-10.4,29.3-15.4,45.6-19.1c43.2-9.6,86-8.2,128.3,5.1
		c11.1,3.5,21.4,8.7,30.2,16.3c8.6,7.4,12.8,16.6,12.4,28.1C718.5,462.8,718.8,472.1,718.7,481.4
		C718.8,481.4,718.7,481.4,718.7,481.4z M599.9,417.5c-18,0-37.6,1.9-56.7,7.6c-12.1,3.7-23.7,8.5-33.1,17.3
		c-4.8,4.5-4.8,9.6,0.1,13.9c6.8,5.9,14.3,10.8,23,13.7c39.3,13.4,79.1,15.2,119.5,5.8c14.2-3.3,28.2-7.1,40-16.3
		c8.7-6.8,8.9-14.3-0.2-20.3c-6.9-4.6-14.5-8.5-22.2-11.5C648.2,419.5,625.1,417.8,599.9,417.5z M603.3,545.9
		c17.6-2.4,34.7-4.3,51.6-7.2c11.7-2,22.7-6.4,33-12.5c8.7-5.2,12.7-12.5,11.5-22.9c-0.7-6.7-0.3-13.5-0.5-20.2c0-1.2-0.2-2.5-0.3-4
		c-29.9,16.8-62.3,20.6-95.3,21.8C603.3,515.6,603.3,529.9,603.3,545.9z"/>
	<path class="st0" d="M599.9,417.5c25.1,0.2,48.3,1.9,70.3,10.3c7.8,3,15.3,6.9,22.2,11.5c9.1,6,8.9,13.6,0.2,20.3
		c-11.8,9.2-25.8,13-40,16.3c-40.4,9.3-80.2,7.5-119.5-5.8c-8.7-3-16.1-7.8-23-13.7c-5-4.3-5-9.4-0.1-13.9
		c9.4-8.8,21-13.7,33.1-17.3C562.3,419.4,581.9,417.5,599.9,417.5z"/>
	<path class="st0" d="M603.3,545.9c0-16,0-30.3,0-45c33.1-1.2,65.4-5,95.3-21.8c0.1,1.6,0.3,2.8,0.3,4c0.1,6.7-0.3,13.5,0.5,20.2
		c1.1,10.4-2.8,17.7-11.5,22.9c-10.3,6.1-21.3,10.6-33,12.5C637.9,541.6,620.9,543.5,603.3,545.9z"/>
	<polygon class="st1" points="590.7,997.9 115.5,812.1 115.5,439.9 590.7,624.9 	"/>
	<path class="st1" d="M468.8,387c0,9.1-0.3,18.3,0.1,27.4c0.4,11.4-4,20.4-12.3,27.7c-12.1,10.6-26.7,15.7-41.9,19.8
		c-30.1,8.1-60.6,9.3-91.5,5.9c-18.9-2.1-37.5-5.4-54.5-14c-7.7-3.9-14.8-9-21.6-14.3c-6.8-5.4-9.8-13.2-9.8-21.8
		c-0.1-20.2-0.1-40.5-0.1-60.7c0-12,5.8-21.1,15.1-28.3c13.5-10.4,29.3-15.4,45.6-19.1c43.2-9.6,86-8.2,128.3,5.1
		c11.1,3.5,21.4,8.7,30.2,16.3c8.6,7.4,12.8,16.6,12.4,28.1C468.6,368.4,468.9,377.7,468.8,387C468.9,387,468.9,387,468.8,387z
		 M350,323.2c-18,0-37.6,1.9-56.7,7.6c-12.1,3.7-23.7,8.5-33.1,17.3c-4.8,4.5-4.8,9.6,0.1,13.9c6.8,5.9,14.3,10.8,23,13.7
		c39.3,13.4,79.1,15.2,119.5,5.8c14.2-3.3,28.2-7.1,40-16.3c8.7-6.8,8.9-14.3-0.2-20.3c-6.9-4.6-14.5-8.5-22.2-11.5
		C398.3,325.1,375.2,323.4,350,323.2z M353.4,451.6c17.6-2.4,34.7-4.3,51.6-7.2c11.7-2,22.7-6.4,33-12.5
		c8.7-5.2,12.7-12.5,11.5-22.9c-0.7-6.7-0.3-13.5-0.5-20.2c0-1.2-0.2-2.5-0.3-4c-29.9,16.8-62.3,20.6-95.3,21.8
		C353.4,421.2,353.4,435.6,353.4,451.6z"/>
	<path class="st1" d="M716.3,293.6c0,9.1-0.3,18.3,0.1,27.4c0.4,11.4-4,20.4-12.3,27.7c-12.1,10.6-26.7,15.7-41.9,19.8
		c-30.1,8.1-60.6,9.3-91.5,5.9c-18.9-2.1-37.5-5.4-54.5-14c-7.7-3.9-14.8-9-21.6-14.3c-6.8-5.4-9.8-13.2-9.8-21.8
		c-0.1-20.2-0.1-40.5-0.1-60.7c0-12,5.8-21.1,15.1-28.3c13.5-10.4,29.3-15.4,45.6-19.1c43.2-9.6,86-8.2,128.3,5.1
		c11.1,3.5,21.4,8.7,30.2,16.3c8.6,7.4,12.8,16.6,12.4,28.1C716,275,716.3,284.3,716.3,293.6C716.3,293.6,716.3,293.6,716.3,293.6z
		 M597.5,229.7c-18,0-37.6,1.9-56.7,7.6c-12.1,3.7-23.7,8.5-33.1,17.3c-4.8,4.5-4.8,9.6,0.1,13.9c6.8,5.9,14.3,10.8,23,13.7
		c39.3,13.4,79.1,15.2,119.5,5.8c14.2-3.3,28.2-7.1,40-16.3c8.7-6.8,8.9-14.3-0.2-20.3c-6.9-4.6-14.5-8.5-22.2-11.5
		C645.8,231.6,622.6,229.9,597.5,229.7z M600.8,358.1c17.6-2.4,34.7-4.3,51.6-7.2c11.7-2,22.7-6.4,33-12.5
		c8.7-5.2,12.7-12.5,11.5-22.9c-0.7-6.7-0.3-13.5-0.5-20.2c0-1.2-0.2-2.5-0.3-4c-29.9,16.8-62.3,20.6-95.3,21.8
		C600.8,327.8,600.8,342.1,600.8,358.1z"/>
	<path class="st1" d="M964.6,389.7c0,9.1-0.3,18.3,0.1,27.4c0.4,11.4-4,20.4-12.3,27.7c-12.1,10.6-26.7,15.7-41.9,19.8
		c-30.1,8.1-60.6,9.3-91.5,5.9c-18.9-2.1-37.5-5.4-54.5-14c-7.7-3.9-14.8-9-21.6-14.3c-6.8-5.4-9.8-13.2-9.8-21.8
		c-0.1-20.2-0.1-40.5-0.1-60.7c0-12,5.8-21.1,15.1-28.3c13.5-10.4,29.3-15.4,45.6-19.1c43.2-9.6,86-8.2,128.3,5.1
		c11.1,3.5,21.4,8.7,30.2,16.3c8.6,7.4,12.8,16.6,12.4,28.1C964.4,371.1,964.7,380.4,964.6,389.7
		C964.7,389.7,964.6,389.7,964.6,389.7z M845.8,325.8c-18,0-37.6,1.9-56.7,7.6c-12.1,3.7-23.7,8.5-33.1,17.3
		c-4.8,4.5-4.8,9.6,0.1,13.9c6.8,5.9,14.3,10.8,23,13.7c39.3,13.4,79.1,15.2,119.5,5.8c14.2-3.3,28.2-7.1,40-16.3
		c8.7-6.8,8.9-14.3-0.2-20.3c-6.9-4.6-14.5-8.5-22.2-11.5C894.1,327.7,871,326,845.8,325.8z M849.2,454.2
		c17.6-2.4,34.7-4.3,51.6-7.2c11.7-2,22.7-6.4,33-12.5c8.7-5.2,12.7-12.5,11.5-22.9c-0.7-6.7-0.3-13.5-0.5-20.2c0-1.2-0.2-2.5-0.3-4
		c-29.9,16.8-62.3,20.6-95.3,21.8C849.2,423.9,849.2,438.2,849.2,454.2z"/>
	<path class="st1" d="M964.9,389.7c0,9.1-0.3,18.3,0.1,27.4c0.4,11.4-4,20.4-12.3,27.7c-12.1,10.6-26.7,15.7-41.9,19.8
		c-30.1,8.1-60.6,9.3-91.5,5.9c-18.9-2.1-37.5-5.4-54.5-14c-7.7-3.9-14.8-9-21.6-14.3c-6.8-5.4-9.8-13.2-9.8-21.8
		c-0.1-20.2-0.1-40.5-0.1-60.7c0-12,5.8-21.1,15.1-28.3c13.5-10.4,29.3-15.4,45.6-19.1c43.2-9.6,86-8.2,128.3,5.1
		c11.1,3.5,21.4,8.7,30.2,16.3c8.6,7.4,12.8,16.6,12.4,28.1C964.7,371.1,965,380.4,964.9,389.7C965,389.7,965,389.7,964.9,389.7z
		 M846.1,325.8c-18,0-37.6,1.9-56.7,7.6c-12.1,3.7-23.7,8.5-33.1,17.3c-4.8,4.5-4.8,9.6,0.1,13.9c6.8,5.9,14.3,10.8,23,13.7
		c39.3,13.4,79.1,15.2,119.5,5.8c14.2-3.3,28.2-7.1,40-16.3c8.7-6.8,8.9-14.3-0.2-20.3c-6.9-4.6-14.5-8.5-22.2-11.5
		C894.4,327.7,871.3,326,846.1,325.8z M849.5,454.2c17.6-2.4,34.7-4.3,51.6-7.2c11.7-2,22.7-6.4,33-12.5
		c8.7-5.2,12.7-12.5,11.5-22.9c-0.7-6.7-0.3-13.5-0.5-20.2c0-1.2-0.2-2.5-0.3-4c-29.9,16.8-62.3,20.6-95.3,21.8
		C849.5,423.9,849.5,438.2,849.5,454.2z"/>
	<path class="st0" d="M846.1,325.8c25.1,0.2,48.3,1.9,70.3,10.3c7.8,3,15.3,6.9,22.2,11.5c9.1,6,8.9,13.6,0.2,20.3
		c-11.8,9.2-25.8,13-40,16.3c-40.4,9.3-80.2,7.5-119.5-5.8c-8.7-3-16.1-7.8-23-13.7c-5-4.3-5-9.4-0.1-13.9
		c9.4-8.8,21-13.7,33.1-17.3C808.5,327.7,828.1,325.8,846.1,325.8z"/>
	<path class="st0" d="M849.5,454.2c0-16,0-30.3,0-45c33.1-1.2,65.4-5,95.3-21.8c0.1,1.6,0.3,2.8,0.3,4c0.1,6.7-0.3,13.5,0.5,20.2
		c1.1,10.4-2.8,17.7-11.5,22.9c-10.3,6.1-21.3,10.6-33,12.5C884.2,449.9,867.1,451.8,849.5,454.2z"/>
	<path class="st1" d="M470.6,387c0,9.1-0.3,18.3,0.1,27.4c0.4,11.4-4,20.4-12.3,27.7c-12.1,10.6-26.7,15.7-41.9,19.8
		c-30.1,8.1-60.6,9.3-91.5,5.9c-18.9-2.1-37.5-5.4-54.5-14c-7.7-3.9-14.8-9-21.6-14.3c-6.8-5.4-9.8-13.2-9.8-21.8
		c-0.1-20.2-0.1-40.5-0.1-60.7c0-12,5.8-21.1,15.1-28.3c13.5-10.4,29.3-15.4,45.6-19.1c43.2-9.6,86-8.2,128.3,5.1
		c11.1,3.5,21.4,8.7,30.2,16.3c8.6,7.4,12.8,16.6,12.4,28.1C470.4,368.4,470.7,377.7,470.6,387C470.7,387,470.7,387,470.6,387z
		 M351.8,323.2c-18,0-37.6,1.9-56.7,7.6c-12.1,3.7-23.7,8.5-33.1,17.3c-4.8,4.5-4.8,9.6,0.1,13.9c6.8,5.9,14.3,10.8,23,13.7
		c39.3,13.4,79.1,15.2,119.5,5.8c14.2-3.3,28.2-7.1,40-16.3c8.7-6.8,8.9-14.3-0.2-20.3c-6.9-4.6-14.5-8.5-22.2-11.5
		C400.1,325.1,377,323.4,351.8,323.2z M355.2,451.6c17.6-2.4,34.7-4.3,51.6-7.2c11.7-2,22.7-6.4,33-12.5
		c8.7-5.2,12.7-12.5,11.5-22.9c-0.7-6.7-0.3-13.5-0.5-20.2c0-1.2-0.2-2.5-0.3-4c-29.9,16.8-62.3,20.6-95.3,21.8
		C355.2,421.2,355.2,435.6,355.2,451.6z"/>
	<path class="st0" d="M350,323.2c25.1,0.2,48.3,1.9,70.3,10.3c7.8,3,15.3,6.9,22.2,11.5c9.1,6,8.9,13.6,0.2,20.3
		c-11.8,9.2-25.8,13-40,16.3c-40.4,9.3-80.2,7.5-119.5-5.8c-8.7-3-16.1-7.8-23-13.7c-5-4.3-5-9.4-0.1-13.9
		c9.4-8.8,21-13.7,33.1-17.3C312.4,325,332,323.2,350,323.2z"/>
	<path class="st0" d="M353.4,451.6c0-16,0-30.3,0-45c33.1-1.2,65.4-5,95.3-21.8c0.1,1.6,0.3,2.8,0.3,4c0.1,6.7-0.3,13.5,0.5,20.2
		c1.1,10.4-2.8,17.7-11.5,22.9c-10.3,6.1-21.3,10.6-33,12.5C388.1,447.2,371,449.2,353.4,451.6z"/>
	<path class="st1" d="M716.3,293.6c0,9.1-0.3,18.3,0.1,27.4c0.4,11.4-4,20.4-12.3,27.7c-12.1,10.6-26.7,15.7-41.9,19.8
		c-30.1,8.1-60.6,9.3-91.5,5.9c-18.9-2.1-37.5-5.4-54.5-14c-7.7-3.9-14.8-9-21.6-14.3c-6.8-5.4-9.8-13.2-9.8-21.8
		c-0.1-20.2-0.1-40.5-0.1-60.7c0-12,5.8-21.1,15.1-28.3c13.5-10.4,29.3-15.4,45.6-19.1c43.2-9.6,86-8.2,128.3,5.1
		c11.1,3.5,21.4,8.7,30.2,16.3c8.6,7.4,12.8,16.6,12.4,28.1C716,275,716.3,284.3,716.3,293.6C716.3,293.6,716.3,293.6,716.3,293.6z
		 M597.5,229.7c-18,0-37.6,1.9-56.7,7.6c-12.1,3.7-23.7,8.5-33.1,17.3c-4.8,4.5-4.8,9.6,0.1,13.9c6.8,5.9,14.3,10.8,23,13.7
		c39.3,13.4,79.1,15.2,119.5,5.8c14.2-3.3,28.2-7.1,40-16.3c8.7-6.8,8.9-14.3-0.2-20.3c-6.9-4.6-14.5-8.5-22.2-11.5
		C645.8,231.6,622.6,229.9,597.5,229.7z M600.8,358.1c17.6-2.4,34.7-4.3,51.6-7.2c11.7-2,22.7-6.4,33-12.5
		c8.7-5.2,12.7-12.5,11.5-22.9c-0.7-6.7-0.3-13.5-0.5-20.2c0-1.2-0.2-2.5-0.3-4c-29.9,16.8-62.3,20.6-95.3,21.8
		C600.8,327.8,600.8,342.1,600.8,358.1z"/>
	<path class="st0" d="M597.5,229.7c25.1,0.2,48.3,1.9,70.3,10.3c7.8,3,15.3,6.9,22.2,11.5c9.1,6,8.9,13.6,0.2,20.3
		c-11.8,9.2-25.8,13-40,16.3c-40.4,9.3-80.2,7.5-119.5-5.8c-8.7-3-16.1-7.8-23-13.7c-5-4.3-5-9.4-0.1-13.9
		c9.4-8.8,21-13.7,33.1-17.3C559.8,231.6,579.5,229.7,597.5,229.7z"/>
	<path class="st0" d="M600.8,358.1c0-16,0-30.3,0-45c33.1-1.2,65.4-5,95.3-21.8c0.1,1.6,0.3,2.8,0.3,4c0.1,6.7-0.3,13.5,0.5,20.2
		c1.1,10.4-2.8,17.7-11.5,22.9c-10.3,6.1-21.3,10.6-33,12.5C635.5,353.8,618.4,355.7,600.8,358.1z"/>
</g>
</svg>
